<svg width="20" height="20" viewBox="0 0 20 20" fill="none" xmlns="http://www.w3.org/2000/svg">
    <path d="M13.5498 8.00064V10.784C13.5498 11.284 13.2998 11.7423 12.8915 12.0173C11.8832 12.684 10.2332 13.4756 8.06651 13.4756C7.08318 13.4756 5.14984 13.284 3.24151 12.009C2.83317 11.7423 2.59151 11.284 2.59151 10.784V8.00898L3.84151 8.55896L7.2165 10.0673C7.40816 10.159 7.5915 10.1923 7.6915 10.2007C7.9415 10.2507 8.19151 10.2507 8.42484 10.209C8.54151 10.1923 8.72484 10.159 8.9165 10.0673L13.5498 8.00064Z" fill="#5D4891"/>
    <path d="M16.8332 12.284C16.8332 12.8756 16.4832 13.3923 15.9748 13.6256V14.8506C15.9748 15.2006 15.6915 15.4756 15.3498 15.4756C14.9998 15.4756 14.7248 15.2006 14.7248 14.8506V13.6256C14.2165 13.3923 13.8665 12.8756 13.8665 12.284C13.8665 11.6923 14.2165 11.1756 14.7248 10.9423V6.2923L8.9165 8.88395C8.72484 8.97562 8.54151 9.00894 8.42484 9.0256C8.19151 9.06727 7.9415 9.06726 7.6915 9.01726C7.5915 9.00893 7.40816 8.97562 7.2165 8.88395L3.84151 7.37562L2.59151 6.82564L1.14152 6.17562C0.541515 5.90895 0.166504 5.38397 0.166504 4.79231C0.166504 4.20064 0.541515 3.66727 1.14152 3.4006L7.22484 0.692271C7.75817 0.467271 8.37485 0.467263 8.89985 0.68393L14.9998 3.4006C15.5998 3.66727 15.9748 4.20064 15.9748 4.79231V10.9423C16.4832 11.1756 16.8332 11.6923 16.8332 12.284Z" fill="#5D4891"/>
</svg>