<svg width="13" height="11" viewBox="0 0 13 11" fill="none" xmlns="http://www.w3.org/2000/svg">
    <path d="M4.41966 8.07684L11.5024 0.759037C11.6695 0.586346 11.8645 0.5 12.0874 0.5C12.3102 0.5 12.5052 0.586346 12.6724 0.759037C12.8395 0.931729 12.9231 1.13694 12.9231 1.37468C12.9231 1.61242 12.8395 1.81735 12.6724 1.98946L5.00466 9.93327C4.83751 10.106 4.64251 10.1923 4.41966 10.1923C4.1968 10.1923 4.0018 10.106 3.83466 9.93327L0.241072 6.2204C0.0739289 6.04771 -0.00630002 5.84279 0.000385715 5.60562C0.00707145 5.36846 0.0942644 5.16324 0.261965 4.98998C0.429665 4.81671 0.628288 4.73036 0.857831 4.73094C1.08737 4.73152 1.28572 4.81786 1.45286 4.98998L4.41966 8.07684Z" fill="white"/>
</svg>
