<svg width="35" height="35" viewBox="0 0 35 35" fill="none" xmlns="http://www.w3.org/2000/svg">
    <path fill-rule="evenodd" clip-rule="evenodd" d="M10.6549 11.3141L11.1552 15.8168L10.1428 15.8976C8.73101 16.0103 7.5782 17.0716 7.34934 18.4693C6.82187 21.6906 6.82187 24.9762 7.34934 28.1975C7.5782 29.5952 8.73101 30.6565 10.1428 30.7692L12.3247 30.9434C15.7695 31.2184 19.2307 31.2184 22.6755 30.9434L24.8573 30.7692C26.2691 30.6565 27.422 29.5952 27.6508 28.1975C28.1783 24.9762 28.1783 21.6906 27.6508 18.4693C27.422 17.0716 26.2691 16.0103 24.8573 15.8976L23.8448 15.8168L24.3451 11.3141C24.4041 10.7833 24.4041 10.2476 24.3451 9.71677L24.3119 9.41796C23.9597 6.24844 21.468 3.7406 18.3008 3.36799C17.7688 3.3054 17.2312 3.3054 16.6992 3.36799C13.532 3.7406 11.0403 6.24843 10.6881 9.41796L10.6549 9.71677C10.596 10.2476 10.596 10.7833 10.6549 11.3141ZM18.0452 5.54051C17.683 5.49789 17.317 5.49789 16.9548 5.54051C14.7985 5.79419 13.102 7.50161 12.8622 9.65953L12.829 9.95834C12.7879 10.3286 12.7879 10.7023 12.829 11.0725L13.3377 15.6505C16.1097 15.4727 18.8903 15.4727 21.6623 15.6505L22.171 11.0725C22.2121 10.7023 22.2121 10.3286 22.171 9.95834L22.1378 9.65953C21.898 7.50161 20.2015 5.79419 18.0452 5.54051ZM17.5 21.1459C16.2919 21.1459 15.3125 22.1253 15.3125 23.3334C15.3125 24.5415 16.2919 25.5209 17.5 25.5209C18.7082 25.5209 19.6875 24.5415 19.6875 23.3334C19.6875 22.1253 18.7082 21.1459 17.5 21.1459Z" fill="#4F4070"/>
</svg>
