<svg width="20" height="20" viewBox="0 0 20 20" fill="none" xmlns="http://www.w3.org/2000/svg">
    <path d="M15.8606 4.09054C14.3873 2.61723 12.3523 1.70557 10.1057 1.70557C7.85908 1.70557 5.82411 2.61723 4.35079 4.09054C2.87748 5.56386 1.96582 7.59883 1.96582 9.84543C1.96582 14.3386 5.61248 17.9853 10.1057 17.9853C12.3523 17.9853 14.3873 17.0736 15.8606 15.6003C17.3339 14.127 18.2456 12.092 18.2456 9.84543C18.2456 7.59883 17.3339 5.56386 15.8606 4.09054ZM12.8325 10.4315L8.99053 12.4014C8.90099 12.4502 8.79517 12.4746 8.68936 12.4746C8.5754 12.4746 8.45329 12.442 8.34747 12.3769C8.15211 12.2548 8.03003 12.0432 8.03003 11.8153V7.87557C8.03003 7.64766 8.15211 7.43604 8.34747 7.31395C8.54283 7.19185 8.78703 7.18368 8.99053 7.2895L12.8325 9.25936C13.0605 9.37332 13.1907 9.5931 13.1907 9.84543C13.1907 10.0978 13.0605 10.3175 12.8325 10.4315Z" fill="white"/>
</svg>
