<svg width="11" height="9" viewBox="0 0 11 9" fill="none" xmlns="http://www.w3.org/2000/svg">
    <path d="M8.95085 3.62456V2.66665C8.95086 2.27317 8.79518 1.89568 8.51781 1.61659C8.24044 1.3375 7.8639 1.17949 7.47043 1.17707H6.37043C6.29446 0.853001 6.11117 0.564135 5.85033 0.357372C5.58949 0.150609 5.26641 0.0380859 4.93356 0.0380859C4.60071 0.0380859 4.27763 0.150609 4.01679 0.357372C3.75595 0.564135 3.57266 0.853001 3.49668 1.17707H2.39668C2.00321 1.17949 1.62668 1.3375 1.34931 1.61659C1.07194 1.89568 0.916259 2.27317 0.916267 2.66665V3.91332C0.916267 4.00448 0.952483 4.09192 1.01695 4.15639C1.08141 4.22085 1.16885 4.25707 1.26002 4.25707C1.47073 4.25948 1.67192 4.3452 1.81964 4.49549C1.96735 4.64578 2.04958 4.84843 2.04835 5.05915C2.05141 5.1648 2.03331 5.27 1.99512 5.36856C1.95693 5.46712 1.89942 5.55705 1.82597 5.63306C1.75252 5.70907 1.66462 5.76963 1.56742 5.81117C1.47023 5.85272 1.36571 5.87442 1.26002 5.87498C1.16922 5.87617 1.08247 5.91277 1.01826 5.97698C0.954052 6.04119 0.917454 6.12793 0.916267 6.21873V7.4654C0.915046 7.85967 1.07019 8.23835 1.34769 8.51843C1.62519 8.79851 2.00242 8.95715 2.39668 8.95957H3.79918C3.88558 8.95498 3.96706 8.91798 4.02738 8.85597C4.0877 8.79395 4.12242 8.71147 4.1246 8.62498C4.1246 8.4159 4.20766 8.21539 4.3555 8.06755C4.50334 7.91971 4.70385 7.83665 4.91293 7.83665C5.12201 7.83665 5.32253 7.91971 5.47037 8.06755C5.61821 8.21539 5.70127 8.4159 5.70127 8.62498C5.70245 8.71578 5.73905 8.80253 5.80326 8.86674C5.86747 8.93095 5.95422 8.96754 6.04502 8.96873H7.47043C7.8647 8.96631 8.24192 8.80767 8.51943 8.52759C8.79693 8.24751 8.95207 7.86883 8.95085 7.47456V6.51665C9.27398 6.43675 9.56105 6.25094 9.76623 5.98884C9.97142 5.72674 10.0829 5.40347 10.0829 5.0706C10.0829 4.73774 9.97142 4.41447 9.76623 4.15237C9.56105 3.89027 9.27398 3.70446 8.95085 3.62456Z" fill="white"/>
</svg>
