<svg width="17" height="18" viewBox="0 0 17 18" fill="none" xmlns="http://www.w3.org/2000/svg">
    <path d="M8.42387 15.3748C12.007 15.3748 14.9117 12.4701 14.9117 8.88701C14.9117 5.30387 12.007 2.39917 8.42387 2.39917C4.84074 2.39917 1.93604 5.30387 1.93604 8.88701C1.93604 12.4701 4.84074 15.3748 8.42387 15.3748Z" stroke="#7C64D5" stroke-width="1.30322" stroke-linecap="round" stroke-linejoin="round"/>
    <path d="M11.3981 11.0466C11.2789 11.2009 10.2268 12.4985 8.42421 12.4915C6.69178 12.4775 5.67477 11.2641 5.5415 11.0957" stroke="#7C64D5" stroke-width="1.30322" stroke-linecap="round" stroke-linejoin="round"/>
    <path d="M5.89888 6.6001C5.40791 6.6001 5.01514 6.9999 5.01514 7.48385C5.01514 7.96781 5.41492 8.36761 5.89888 8.36761C6.38985 8.36761 6.78264 7.96781 6.78264 7.48385C6.78264 6.9999 6.38985 6.6001 5.89888 6.6001Z" fill="#7C64D5"/>
    <path d="M10.9485 6.6001C10.4575 6.6001 10.0647 6.9999 10.0647 7.48385C10.0647 7.96781 10.4645 8.36761 10.9485 8.36761C11.4394 8.36761 11.8322 7.96781 11.8322 7.48385C11.8322 6.9999 11.4324 6.6001 10.9485 6.6001Z" fill="#7C64D5"/>
</svg>
