<svg width="20" height="20" viewBox="0 0 20 20" fill="none" xmlns="http://www.w3.org/2000/svg">
    <path d="M6.08317 0.999756C5.49984 0.833089 4.83317 0.749756 4.24984 0.749756C3.83317 0.749756 3.49984 0.833089 3.1665 1.16642C2.9165 1.41642 2.74984 1.83309 2.74984 2.24976V2.49976H2.49984C1.24984 2.49976 0.166504 3.49976 0.166504 4.83309V13.4164C0.166504 14.6664 1.24984 15.7498 2.49984 15.7498H8.6665V2.49976C7.9165 1.83309 6.99984 1.33309 6.08317 0.999756ZM2.49984 14.4998C1.9165 14.4998 1.4165 13.9998 1.4165 13.4164V4.83309C1.4165 4.24976 1.9165 3.74976 2.49984 3.74976H2.74984V11.7498C2.74984 12.5831 3.4165 13.1664 4.1665 13.2498C4.74984 13.2498 5.24984 13.4164 5.74984 13.5831C6.33317 13.8331 6.83317 14.1664 7.1665 14.4998H2.49984ZM14.4998 2.49976H9.49984V15.7498H14.4998C15.7498 15.7498 16.8332 14.6664 16.8332 13.4164V4.83309C16.8332 3.49976 15.7498 2.49976 14.4998 2.49976ZM13.6665 13.1664H11.0832C10.7498 13.1664 10.4165 12.9164 10.4165 12.4998C10.4165 12.1664 10.6665 11.8331 11.0832 11.8331H13.6665C13.9998 11.8331 14.3332 12.0831 14.3332 12.4998C14.2498 12.9164 13.9998 13.1664 13.6665 13.1664ZM13.6665 9.74975H11.0832C10.7498 9.74975 10.4165 9.49976 10.4165 9.08309C10.4165 8.74976 10.6665 8.41642 11.0832 8.41642H13.6665C13.9998 8.41642 14.3332 8.66642 14.3332 9.08309C14.2498 9.41642 13.9998 9.74975 13.6665 9.74975ZM13.6665 6.24976H11.0832C10.7498 6.24976 10.4165 5.99976 10.4165 5.58309C10.4165 5.24976 10.6665 4.91642 11.0832 4.91642H13.6665C13.9998 4.91642 14.3332 5.16642 14.3332 5.58309C14.2498 5.99976 13.9998 6.24976 13.6665 6.24976Z" fill="#5D4891"/>
</svg>
