<svg width="11" height="11" viewBox="0 0 11 11" fill="none" xmlns="http://www.w3.org/2000/svg">
    <path d="M5.50033 0.916748C2.97491 0.916748 0.916992 2.97466 0.916992 5.50008C0.916992 8.0255 2.97491 10.0834 5.50033 10.0834C8.02574 10.0834 10.0837 8.0255 10.0837 5.50008C10.0837 2.97466 8.02574 0.916748 5.50033 0.916748ZM5.50033 2.80049C6.33908 2.80049 7.02199 3.48341 7.02199 4.32216C7.02199 5.16091 6.33908 5.84383 5.50033 5.84383C4.66158 5.84383 3.97866 5.16091 3.97866 4.32216C3.97866 3.48341 4.66158 2.80049 5.50033 2.80049ZM5.50033 9.39592C4.37741 9.39592 3.36449 8.91924 2.65408 8.15841C2.49824 7.99341 2.35616 7.81007 2.22783 7.61299C3.09866 6.94841 4.27658 6.56799 5.50033 6.56799C6.72408 6.56799 7.90199 6.94841 8.77283 7.61299C8.64449 7.81007 8.50241 7.99341 8.34658 8.15841C7.63616 8.91924 6.62324 9.39592 5.50033 9.39592Z" fill="white"/>
</svg>
